<mxfile host="Electron" modified="2023-07-29T22:47:31.924Z" agent="Mozilla/5.0 (Windows NT 10.0; Win64; x64) AppleWebKit/537.36 (KHTML, like Gecko) draw.io/21.2.8 Chrome/112.0.5615.165 Electron/24.2.0 Safari/537.36" etag="N_e_oXZQWCyfQZEoVnB1" version="21.2.8" type="device">
  <diagram name="Page-1" id="8oUDeTJvl8jVKW3c46NM">
    <mxGraphModel dx="3686" dy="3974" grid="1" gridSize="10" guides="1" tooltips="1" connect="1" arrows="1" fold="1" page="1" pageScale="1" pageWidth="850" pageHeight="1100" math="0" shadow="0">
      <root>
        <mxCell id="0" />
        <mxCell id="1" parent="0" />
        <mxCell id="gf6xivo0Hs4itOAQOorf-147" value="" style="edgeStyle=orthogonalEdgeStyle;rounded=0;orthogonalLoop=1;jettySize=auto;html=1;" edge="1" parent="1" source="gf6xivo0Hs4itOAQOorf-114" target="gf6xivo0Hs4itOAQOorf-146">
          <mxGeometry relative="1" as="geometry" />
        </mxCell>
        <mxCell id="gf6xivo0Hs4itOAQOorf-1" value="&lt;b&gt;&lt;font style=&quot;font-size: 14px;&quot;&gt;Articles&lt;/font&gt;&lt;/b&gt;" style="rounded=0;whiteSpace=wrap;html=1;fillColor=#B5739D;" vertex="1" parent="1">
          <mxGeometry x="1050" y="-1580" width="200" height="80" as="geometry" />
        </mxCell>
        <mxCell id="gf6xivo0Hs4itOAQOorf-2" style="edgeStyle=orthogonalEdgeStyle;rounded=0;orthogonalLoop=1;jettySize=auto;html=1;exitX=1;exitY=0.5;exitDx=0;exitDy=0;entryX=0;entryY=0.5;entryDx=0;entryDy=0;fillColor=#7EA6E0;" edge="1" parent="1" source="gf6xivo0Hs4itOAQOorf-15" target="gf6xivo0Hs4itOAQOorf-3">
          <mxGeometry relative="1" as="geometry" />
        </mxCell>
        <mxCell id="gf6xivo0Hs4itOAQOorf-3" value="&lt;font style=&quot;font-size: 14px;&quot;&gt;&lt;b&gt;Data Prepreration&lt;/b&gt;&lt;/font&gt;" style="rounded=0;whiteSpace=wrap;html=1;fillColor=#B5739D;" vertex="1" parent="1">
          <mxGeometry x="1050" y="-1460" width="200" height="80" as="geometry" />
        </mxCell>
        <mxCell id="gf6xivo0Hs4itOAQOorf-4" style="edgeStyle=orthogonalEdgeStyle;rounded=0;orthogonalLoop=1;jettySize=auto;html=1;fillColor=#7EA6E0;entryX=0;entryY=0.5;entryDx=0;entryDy=0;" edge="1" parent="1" source="gf6xivo0Hs4itOAQOorf-16" target="gf6xivo0Hs4itOAQOorf-6">
          <mxGeometry relative="1" as="geometry" />
        </mxCell>
        <mxCell id="gf6xivo0Hs4itOAQOorf-5" style="edgeStyle=orthogonalEdgeStyle;rounded=0;orthogonalLoop=1;jettySize=auto;html=1;fillColor=#7EA6E0;entryX=1;entryY=0.5;entryDx=0;entryDy=0;" edge="1" parent="1" source="gf6xivo0Hs4itOAQOorf-17" target="gf6xivo0Hs4itOAQOorf-6">
          <mxGeometry relative="1" as="geometry" />
        </mxCell>
        <mxCell id="gf6xivo0Hs4itOAQOorf-6" value="&lt;font style=&quot;font-size: 14px;&quot;&gt;&lt;b&gt;Data Preprocessing&lt;/b&gt;&lt;/font&gt;" style="rounded=0;whiteSpace=wrap;html=1;fillColor=#B5739D;" vertex="1" parent="1">
          <mxGeometry x="1050" y="-1340" width="200" height="80" as="geometry" />
        </mxCell>
        <mxCell id="gf6xivo0Hs4itOAQOorf-158" value="" style="edgeStyle=orthogonalEdgeStyle;rounded=0;orthogonalLoop=1;jettySize=auto;html=1;" edge="1" parent="1" source="gf6xivo0Hs4itOAQOorf-7" target="gf6xivo0Hs4itOAQOorf-10">
          <mxGeometry relative="1" as="geometry" />
        </mxCell>
        <mxCell id="gf6xivo0Hs4itOAQOorf-7" value="&lt;font style=&quot;font-size: 14px;&quot;&gt;&lt;b&gt;Sentiment Analysis&amp;nbsp;&lt;/b&gt;&lt;/font&gt;" style="rounded=0;whiteSpace=wrap;html=1;fillColor=#B5739D;" vertex="1" parent="1">
          <mxGeometry x="1050" y="-1220" width="200" height="80" as="geometry" />
        </mxCell>
        <mxCell id="gf6xivo0Hs4itOAQOorf-159" value="" style="edgeStyle=orthogonalEdgeStyle;rounded=0;orthogonalLoop=1;jettySize=auto;html=1;" edge="1" parent="1" source="gf6xivo0Hs4itOAQOorf-10" target="gf6xivo0Hs4itOAQOorf-96">
          <mxGeometry relative="1" as="geometry" />
        </mxCell>
        <mxCell id="gf6xivo0Hs4itOAQOorf-160" value="" style="edgeStyle=orthogonalEdgeStyle;rounded=0;orthogonalLoop=1;jettySize=auto;html=1;" edge="1" parent="1" source="gf6xivo0Hs4itOAQOorf-10" target="gf6xivo0Hs4itOAQOorf-96">
          <mxGeometry relative="1" as="geometry" />
        </mxCell>
        <mxCell id="gf6xivo0Hs4itOAQOorf-161" value="" style="edgeStyle=orthogonalEdgeStyle;rounded=0;orthogonalLoop=1;jettySize=auto;html=1;" edge="1" parent="1" source="gf6xivo0Hs4itOAQOorf-10" target="gf6xivo0Hs4itOAQOorf-96">
          <mxGeometry relative="1" as="geometry" />
        </mxCell>
        <mxCell id="gf6xivo0Hs4itOAQOorf-162" value="" style="edgeStyle=orthogonalEdgeStyle;rounded=0;orthogonalLoop=1;jettySize=auto;html=1;" edge="1" parent="1" source="gf6xivo0Hs4itOAQOorf-10" target="gf6xivo0Hs4itOAQOorf-100">
          <mxGeometry relative="1" as="geometry" />
        </mxCell>
        <mxCell id="gf6xivo0Hs4itOAQOorf-164" value="" style="edgeStyle=orthogonalEdgeStyle;rounded=0;orthogonalLoop=1;jettySize=auto;html=1;" edge="1" parent="1" source="gf6xivo0Hs4itOAQOorf-10" target="gf6xivo0Hs4itOAQOorf-100">
          <mxGeometry relative="1" as="geometry" />
        </mxCell>
        <mxCell id="gf6xivo0Hs4itOAQOorf-165" value="" style="edgeStyle=orthogonalEdgeStyle;rounded=0;orthogonalLoop=1;jettySize=auto;html=1;" edge="1" parent="1" source="gf6xivo0Hs4itOAQOorf-10" target="gf6xivo0Hs4itOAQOorf-100">
          <mxGeometry relative="1" as="geometry" />
        </mxCell>
        <mxCell id="gf6xivo0Hs4itOAQOorf-167" value="" style="edgeStyle=orthogonalEdgeStyle;rounded=0;orthogonalLoop=1;jettySize=auto;html=1;" edge="1" parent="1" source="gf6xivo0Hs4itOAQOorf-10" target="gf6xivo0Hs4itOAQOorf-96">
          <mxGeometry relative="1" as="geometry" />
        </mxCell>
        <mxCell id="gf6xivo0Hs4itOAQOorf-169" value="" style="edgeStyle=orthogonalEdgeStyle;rounded=0;orthogonalLoop=1;jettySize=auto;html=1;" edge="1" parent="1" source="gf6xivo0Hs4itOAQOorf-10" target="gf6xivo0Hs4itOAQOorf-96">
          <mxGeometry relative="1" as="geometry" />
        </mxCell>
        <mxCell id="gf6xivo0Hs4itOAQOorf-170" value="" style="edgeStyle=orthogonalEdgeStyle;rounded=0;orthogonalLoop=1;jettySize=auto;html=1;" edge="1" parent="1" source="gf6xivo0Hs4itOAQOorf-10" target="gf6xivo0Hs4itOAQOorf-96">
          <mxGeometry relative="1" as="geometry" />
        </mxCell>
        <mxCell id="gf6xivo0Hs4itOAQOorf-171" value="" style="edgeStyle=orthogonalEdgeStyle;rounded=0;orthogonalLoop=1;jettySize=auto;html=1;" edge="1" parent="1" source="gf6xivo0Hs4itOAQOorf-10" target="gf6xivo0Hs4itOAQOorf-96">
          <mxGeometry relative="1" as="geometry" />
        </mxCell>
        <mxCell id="gf6xivo0Hs4itOAQOorf-10" value="&lt;b&gt;&lt;font style=&quot;font-size: 14px;&quot;&gt;Topic Modeling&lt;/font&gt;&lt;/b&gt;" style="rounded=0;whiteSpace=wrap;html=1;fillColor=#B5739D;" vertex="1" parent="1">
          <mxGeometry x="1050" y="-1100" width="200" height="80" as="geometry" />
        </mxCell>
        <mxCell id="gf6xivo0Hs4itOAQOorf-11" value="" style="shape=flexArrow;endArrow=classic;html=1;rounded=0;exitX=0.5;exitY=1;exitDx=0;exitDy=0;fillColor=#000000;" edge="1" parent="1" source="gf6xivo0Hs4itOAQOorf-1" target="gf6xivo0Hs4itOAQOorf-3">
          <mxGeometry width="50" height="50" relative="1" as="geometry">
            <mxPoint x="1130" y="-1460" as="sourcePoint" />
            <mxPoint x="1180" y="-1510" as="targetPoint" />
          </mxGeometry>
        </mxCell>
        <mxCell id="gf6xivo0Hs4itOAQOorf-12" value="" style="shape=flexArrow;endArrow=classic;html=1;rounded=0;exitX=0.5;exitY=1;exitDx=0;exitDy=0;entryX=0.5;entryY=0;entryDx=0;entryDy=0;fillColor=#000000;" edge="1" parent="1" source="gf6xivo0Hs4itOAQOorf-3" target="gf6xivo0Hs4itOAQOorf-6">
          <mxGeometry width="50" height="50" relative="1" as="geometry">
            <mxPoint x="1170" y="-1490" as="sourcePoint" />
            <mxPoint x="1170" y="-1350" as="targetPoint" />
          </mxGeometry>
        </mxCell>
        <mxCell id="gf6xivo0Hs4itOAQOorf-13" value="" style="shape=flexArrow;endArrow=classic;html=1;rounded=0;exitX=0.5;exitY=1;exitDx=0;exitDy=0;entryX=0.5;entryY=0;entryDx=0;entryDy=0;fillColor=#000000;" edge="1" parent="1" source="gf6xivo0Hs4itOAQOorf-6" target="gf6xivo0Hs4itOAQOorf-7">
          <mxGeometry width="50" height="50" relative="1" as="geometry">
            <mxPoint x="1130" y="-1210" as="sourcePoint" />
            <mxPoint x="1180" y="-1260" as="targetPoint" />
          </mxGeometry>
        </mxCell>
        <mxCell id="gf6xivo0Hs4itOAQOorf-14" value="" style="shape=flexArrow;endArrow=classic;html=1;rounded=0;exitX=0.5;exitY=1;exitDx=0;exitDy=0;entryX=0.5;entryY=0;entryDx=0;entryDy=0;fillColor=#000000;" edge="1" parent="1" source="gf6xivo0Hs4itOAQOorf-7" target="gf6xivo0Hs4itOAQOorf-10">
          <mxGeometry width="50" height="50" relative="1" as="geometry">
            <mxPoint x="1130" y="-1080" as="sourcePoint" />
            <mxPoint x="1180" y="-1130" as="targetPoint" />
          </mxGeometry>
        </mxCell>
        <mxCell id="gf6xivo0Hs4itOAQOorf-15" value="&lt;b&gt;URLS&lt;/b&gt;" style="rounded=1;whiteSpace=wrap;html=1;fillColor=#CDA2BE;" vertex="1" parent="1">
          <mxGeometry x="790" y="-1450" width="120" height="60" as="geometry" />
        </mxCell>
        <mxCell id="gf6xivo0Hs4itOAQOorf-16" value="&lt;b&gt;Stop word and special carchters&lt;/b&gt;" style="rounded=1;whiteSpace=wrap;html=1;fillColor=#CDA2BE;" vertex="1" parent="1">
          <mxGeometry x="790" y="-1330" width="120" height="60" as="geometry" />
        </mxCell>
        <mxCell id="gf6xivo0Hs4itOAQOorf-17" value="&lt;b&gt;Lemmeization&lt;/b&gt;" style="rounded=1;whiteSpace=wrap;html=1;fillColor=#CDA2BE;" vertex="1" parent="1">
          <mxGeometry x="1410" y="-1330" width="120" height="60" as="geometry" />
        </mxCell>
        <mxCell id="gf6xivo0Hs4itOAQOorf-94" style="edgeStyle=orthogonalEdgeStyle;rounded=0;orthogonalLoop=1;jettySize=auto;html=1;fillColor=#7EA6E0;" edge="1" parent="1" source="gf6xivo0Hs4itOAQOorf-95">
          <mxGeometry relative="1" as="geometry">
            <mxPoint x="1050" y="-1180" as="targetPoint" />
          </mxGeometry>
        </mxCell>
        <mxCell id="gf6xivo0Hs4itOAQOorf-95" value="&lt;b&gt;Raw Data&lt;/b&gt;" style="rounded=1;whiteSpace=wrap;html=1;fillColor=#CDA2BE;" vertex="1" parent="1">
          <mxGeometry x="790" y="-1210" width="120" height="60" as="geometry" />
        </mxCell>
        <mxCell id="gf6xivo0Hs4itOAQOorf-163" value="" style="edgeStyle=orthogonalEdgeStyle;rounded=0;orthogonalLoop=1;jettySize=auto;html=1;" edge="1" parent="1" source="gf6xivo0Hs4itOAQOorf-96" target="gf6xivo0Hs4itOAQOorf-10">
          <mxGeometry relative="1" as="geometry" />
        </mxCell>
        <mxCell id="gf6xivo0Hs4itOAQOorf-96" value="&lt;font style=&quot;font-size: 14px;&quot;&gt;&lt;b&gt;N-gram analysis&lt;/b&gt;&lt;/font&gt;" style="rounded=0;whiteSpace=wrap;html=1;fillColor=#B5739D;" vertex="1" parent="1">
          <mxGeometry x="1050" y="-980" width="200" height="80" as="geometry" />
        </mxCell>
        <mxCell id="gf6xivo0Hs4itOAQOorf-97" value="" style="shape=flexArrow;endArrow=classic;html=1;rounded=0;exitX=0.5;exitY=1;exitDx=0;exitDy=0;entryX=0.5;entryY=0;entryDx=0;entryDy=0;fillColor=#000000;" edge="1" parent="1" target="gf6xivo0Hs4itOAQOorf-96">
          <mxGeometry width="50" height="50" relative="1" as="geometry">
            <mxPoint x="1150" y="-1020" as="sourcePoint" />
            <mxPoint x="1180" y="-1010" as="targetPoint" />
          </mxGeometry>
        </mxCell>
        <mxCell id="gf6xivo0Hs4itOAQOorf-100" value="" style="strokeWidth=2;html=1;shape=mxgraph.flowchart.annotation_2;align=left;labelPosition=right;pointerEvents=1;direction=south;fillColor=#7EA6E0;" vertex="1" parent="1">
          <mxGeometry x="860" y="-900" width="580" height="50" as="geometry" />
        </mxCell>
        <mxCell id="gf6xivo0Hs4itOAQOorf-101" value="&lt;b&gt;Clustering&lt;/b&gt;" style="rounded=1;whiteSpace=wrap;html=1;fillColor=#A680B8;" vertex="1" parent="1">
          <mxGeometry x="812.5" y="-840" width="120" height="60" as="geometry" />
        </mxCell>
        <mxCell id="gf6xivo0Hs4itOAQOorf-102" value="" style="strokeWidth=2;html=1;shape=mxgraph.flowchart.annotation_2;align=left;labelPosition=right;pointerEvents=1;direction=south;fillColor=#7EA6E0;" vertex="1" parent="1">
          <mxGeometry x="822.5" y="-770" width="100" height="50" as="geometry" />
        </mxCell>
        <mxCell id="gf6xivo0Hs4itOAQOorf-103" value="&lt;b&gt;BOW&lt;/b&gt;" style="whiteSpace=wrap;html=1;aspect=fixed;fillColor=#CDA2BE;" vertex="1" parent="1">
          <mxGeometry x="910" y="-720" width="35" height="35" as="geometry" />
        </mxCell>
        <mxCell id="gf6xivo0Hs4itOAQOorf-104" value="&lt;b&gt;TFIDF&lt;/b&gt;" style="whiteSpace=wrap;html=1;aspect=fixed;fillColor=#CDA2BE;" vertex="1" parent="1">
          <mxGeometry x="852.5" y="-720" width="35" height="35" as="geometry" />
        </mxCell>
        <mxCell id="gf6xivo0Hs4itOAQOorf-105" value="&lt;font style=&quot;font-size: 12px;&quot;&gt;&lt;b&gt;W2V&lt;/b&gt;&lt;/font&gt;" style="whiteSpace=wrap;html=1;aspect=fixed;fillColor=#CDA2BE;" vertex="1" parent="1">
          <mxGeometry x="800" y="-720" width="35" height="35" as="geometry" />
        </mxCell>
        <mxCell id="gf6xivo0Hs4itOAQOorf-106" value="" style="endArrow=classic;html=1;rounded=0;fillColor=#FFFFFF;" edge="1" parent="1">
          <mxGeometry width="50" height="50" relative="1" as="geometry">
            <mxPoint x="927.1799999999998" y="-680" as="sourcePoint" />
            <mxPoint x="927.5" y="-650" as="targetPoint" />
            <Array as="points">
              <mxPoint x="927.5" y="-670" />
            </Array>
          </mxGeometry>
        </mxCell>
        <mxCell id="gf6xivo0Hs4itOAQOorf-107" value="&lt;b&gt;0.1463&lt;/b&gt;" style="rounded=1;whiteSpace=wrap;html=1;fillColor=#C699DB;" vertex="1" parent="1">
          <mxGeometry x="900" y="-640" width="55" height="20" as="geometry" />
        </mxCell>
        <mxCell id="gf6xivo0Hs4itOAQOorf-108" value="" style="endArrow=classic;html=1;rounded=0;fillColor=#FFFFFF;" edge="1" parent="1">
          <mxGeometry width="50" height="50" relative="1" as="geometry">
            <mxPoint x="812.1800000000001" y="-680" as="sourcePoint" />
            <mxPoint x="812.5" y="-650" as="targetPoint" />
            <Array as="points">
              <mxPoint x="812.5" y="-670" />
            </Array>
          </mxGeometry>
        </mxCell>
        <mxCell id="gf6xivo0Hs4itOAQOorf-109" value="" style="endArrow=classic;html=1;rounded=0;fillColor=#FFFFFF;" edge="1" parent="1">
          <mxGeometry width="50" height="50" relative="1" as="geometry">
            <mxPoint x="869.6799999999998" y="-680" as="sourcePoint" />
            <mxPoint x="870" y="-650" as="targetPoint" />
            <Array as="points">
              <mxPoint x="870" y="-670" />
            </Array>
          </mxGeometry>
        </mxCell>
        <mxCell id="gf6xivo0Hs4itOAQOorf-110" value="&lt;b&gt;0.0062&lt;/b&gt;" style="rounded=1;whiteSpace=wrap;html=1;fillColor=#C699DB;" vertex="1" parent="1">
          <mxGeometry x="842.5" y="-640" width="55" height="20" as="geometry" />
        </mxCell>
        <mxCell id="gf6xivo0Hs4itOAQOorf-111" value="&lt;b&gt;0.5649&lt;/b&gt;" style="rounded=1;whiteSpace=wrap;html=1;fillColor=#C699DB;" vertex="1" parent="1">
          <mxGeometry x="780" y="-640" width="60" height="20" as="geometry" />
        </mxCell>
        <mxCell id="gf6xivo0Hs4itOAQOorf-112" value="&lt;b&gt;Summarization&lt;/b&gt;" style="rounded=1;whiteSpace=wrap;html=1;fillColor=#A680B8;" vertex="1" parent="1">
          <mxGeometry x="1390" y="-840" width="120" height="60" as="geometry" />
        </mxCell>
        <mxCell id="gf6xivo0Hs4itOAQOorf-113" value="" style="strokeWidth=2;html=1;shape=mxgraph.flowchart.annotation_2;align=left;labelPosition=right;pointerEvents=1;direction=south;fillColor=#A680B8;" vertex="1" parent="1">
          <mxGeometry x="1325" y="-780" width="250" height="50" as="geometry" />
        </mxCell>
        <mxCell id="gf6xivo0Hs4itOAQOorf-114" value="&lt;b&gt;Abstractive&amp;nbsp;&lt;/b&gt;" style="rounded=1;whiteSpace=wrap;html=1;fillColor=#E6D0DE;" vertex="1" parent="1">
          <mxGeometry x="1513.5" y="-720" width="120" height="60" as="geometry" />
        </mxCell>
        <mxCell id="gf6xivo0Hs4itOAQOorf-120" value="&lt;b&gt;34.78%&lt;/b&gt;" style="rounded=1;whiteSpace=wrap;html=1;fillColor=#C699DB;" vertex="1" parent="1">
          <mxGeometry x="1610" y="-540" width="55" height="20" as="geometry" />
        </mxCell>
        <mxCell id="gf6xivo0Hs4itOAQOorf-124" value="&lt;b&gt;26.09%&lt;/b&gt;" style="rounded=1;whiteSpace=wrap;html=1;fillColor=#C699DB;" vertex="1" parent="1">
          <mxGeometry x="1470" y="-540" width="60" height="20" as="geometry" />
        </mxCell>
        <mxCell id="gf6xivo0Hs4itOAQOorf-125" value="&lt;b&gt;Extractive&lt;/b&gt;" style="rounded=1;whiteSpace=wrap;html=1;fillColor=#E6D0DE;" vertex="1" parent="1">
          <mxGeometry x="1264.32" y="-720" width="120" height="60" as="geometry" />
        </mxCell>
        <mxCell id="gf6xivo0Hs4itOAQOorf-136" value="" style="strokeWidth=2;html=1;shape=mxgraph.flowchart.annotation_2;align=left;labelPosition=right;pointerEvents=1;direction=south;fillColor=#7EA6E0;" vertex="1" parent="1">
          <mxGeometry x="1523.5" y="-600" width="100" height="50" as="geometry" />
        </mxCell>
        <mxCell id="gf6xivo0Hs4itOAQOorf-138" value="&lt;b&gt;9.52%&lt;/b&gt;" style="rounded=1;whiteSpace=wrap;html=1;fillColor=#C699DB;" vertex="1" parent="1">
          <mxGeometry x="1540" y="-540" width="60" height="20" as="geometry" />
        </mxCell>
        <mxCell id="gf6xivo0Hs4itOAQOorf-146" value="&lt;b&gt;ROUGE&lt;/b&gt;" style="ellipse;whiteSpace=wrap;html=1;fillColor=#CDA2BE;" vertex="1" parent="1">
          <mxGeometry x="1513.5" y="-630" width="120" height="30" as="geometry" />
        </mxCell>
        <mxCell id="gf6xivo0Hs4itOAQOorf-148" value="" style="edgeStyle=orthogonalEdgeStyle;rounded=0;orthogonalLoop=1;jettySize=auto;html=1;" edge="1" parent="1" target="gf6xivo0Hs4itOAQOorf-152">
          <mxGeometry relative="1" as="geometry">
            <mxPoint x="1319" y="-660" as="sourcePoint" />
          </mxGeometry>
        </mxCell>
        <mxCell id="gf6xivo0Hs4itOAQOorf-152" value="&lt;b&gt;Sentence Similarity&lt;/b&gt;" style="ellipse;whiteSpace=wrap;html=1;fillColor=#CDA2BE;" vertex="1" parent="1">
          <mxGeometry x="1258.5" y="-630" width="120" height="30" as="geometry" />
        </mxCell>
        <mxCell id="gf6xivo0Hs4itOAQOorf-153" value="" style="endArrow=classic;html=1;rounded=0;exitX=0.5;exitY=1;exitDx=0;exitDy=0;entryX=0.5;entryY=0;entryDx=0;entryDy=0;" edge="1" parent="1" source="gf6xivo0Hs4itOAQOorf-152" target="gf6xivo0Hs4itOAQOorf-154">
          <mxGeometry width="50" height="50" relative="1" as="geometry">
            <mxPoint x="1140" y="-620" as="sourcePoint" />
            <mxPoint x="1319" y="-560" as="targetPoint" />
          </mxGeometry>
        </mxCell>
        <mxCell id="gf6xivo0Hs4itOAQOorf-154" value="&lt;b&gt;0.95174&lt;/b&gt;" style="rounded=1;whiteSpace=wrap;html=1;fillColor=#C699DB;" vertex="1" parent="1">
          <mxGeometry x="1288.5" y="-540" width="60" height="20" as="geometry" />
        </mxCell>
      </root>
    </mxGraphModel>
  </diagram>
</mxfile>
